<svg id="SvgjsSvg1000" xmlns="http://www.w3.org/2000/svg" version="1.1" xmlns:xlink="http://www.w3.org/1999/xlink" xmlns:svgjs="http://svgjs.com/svgjs" width="113" height="19" viewBox="0 0 113 19"><title>Bouncy</title><desc>Created with Avocode.</desc><defs id="SvgjsDefs1001"></defs><path id="SvgjsPath1007" d="M102.823 61.9508V58.7014H106.12299999999999C106.972 58.7014 107.74699999999999 59.4263 107.74699999999999 60.3261C107.74699999999999 61.2258 107.02199999999999 61.950799999999994 106.12299999999999 61.950799999999994ZM102.823 54.5774V51.3283H105.198C106.098 51.3283 106.82199999999999 52.053 106.82199999999999 52.9527C106.82199999999999 53.8528 106.09799999999998 54.5774 105.198 54.5774ZM107.147 65.9996C110.122 65.9996 112.646 63.4754 112.646 60.5012C112.646 58.8013 111.796 57.2268 110.521 56.2022C111.246 55.2771 111.721 54.102399999999996 111.721 52.8279C111.721 49.8287 109.172 47.2543 106.173 47.2543H97.8995V65.9996ZM115.224 56.6519C115.224 61.826 119.39800000000001 65.9996 124.572 65.9996C129.746 65.9996 133.945 61.826 133.945 56.6519C133.945 51.4781 129.74599999999998 47.2543 124.57199999999999 47.2543C119.39799999999998 47.2543 115.22399999999999 51.4781 115.22399999999999 56.6519ZM129.046 56.6269C129.046 59.076499999999996 127.047 61.100699999999996 124.57199999999999 61.100699999999996C122.12299999999999 61.100699999999996 120.12299999999999 59.076499999999996 120.12299999999999 56.6269C120.12299999999999 54.152699999999996 122.12299999999999 52.1531 124.57199999999999 52.1531C127.04699999999998 52.1531 129.046 54.1527 129.046 56.6269ZM141.798 47.2543H136.849V58.6012C136.849 62.7254 140.123 65.9996 144.24699999999999 65.9996C148.321 65.9996 151.646 62.7254 151.646 58.6012V47.2543H146.69699999999997V58.5266C146.69699999999997 59.876400000000004 145.59699999999998 60.9759 144.24699999999999 60.9759C142.898 60.9759 141.79799999999997 59.876400000000004 141.79799999999997 58.5266ZM171.195 65.9996V47.2543H166.271V56.1023L157.399 47.2543H155.399V65.9996H160.323V57.1269L169.17100000000002 65.9996ZM189.245 49.9785C187.546 48.2789 185.221 47.25429999999999 182.647 47.25429999999999C177.47299999999998 47.25429999999999 173.274 51.45309999999999 173.274 56.62689999999999C173.274 61.80069999999999 177.473 65.99959999999999 182.647 65.99959999999999C185.24599999999998 65.99959999999999 187.596 64.92499999999998 189.295 63.225399999999986L185.796 59.77619999999999C185.021 60.57609999999999 183.922 61.026099999999985 182.647 61.026099999999985C180.09799999999998 61.026099999999985 178.248 59.176599999999986 178.248 56.626899999999985C178.248 54.077499999999986 180.09799999999998 52.22799999999999 182.647 52.22799999999999C183.922 52.22799999999999 185.021 52.678099999999986 185.796 53.45299999999999ZM209.72 47.2543H204.047L200.422 53.5029L196.823 47.2543H191.15L197.99800000000002 59.1014V65.9996H202.872V59.1014Z " fill="#ffffff" fill-opacity="1" transform="matrix(1,0,0,1,-97,-47)"></path></svg>
